<mxfile host="Electron" modified="2024-02-09T14:40:53.725Z" agent="Mozilla/5.0 (Windows NT 10.0; Win64; x64) AppleWebKit/537.36 (KHTML, like Gecko) draw.io/22.1.16 Chrome/120.0.6099.109 Electron/28.1.0 Safari/537.36" etag="56p-ayyb0KmBaQsIH0AQ" version="22.1.16" type="device">
  <diagram name="Page-1" id="UgkzKDdlbD2YLOSZ790F">
    <mxGraphModel dx="-155" dy="476" grid="0" gridSize="10" guides="1" tooltips="1" connect="1" arrows="1" fold="1" page="1" pageScale="1" pageWidth="850" pageHeight="1100" math="0" shadow="0">
      <root>
        <mxCell id="0" />
        <mxCell id="1" parent="0" />
        <mxCell id="qZ8IaFJrwKr3jehd2U7y-1" value="" style="group;fillColor=#232136;strokeColor=#232136;strokeWidth=25;" parent="1" vertex="1" connectable="0">
          <mxGeometry x="895" y="229" width="816" height="316" as="geometry" />
        </mxCell>
        <mxCell id="kwFyTD9Cq_FAFEDmP9UZ-1" value="&lt;p style=&quot;margin: 4px 0px 0px; text-align: center; font-size: 16px;&quot;&gt;&lt;font style=&quot;font-size: 16px;&quot;&gt;&lt;b style=&quot;font-size: 16px;&quot;&gt;Directive&lt;/b&gt;&lt;/font&gt;&lt;/p&gt;&lt;hr style=&quot;font-size: 16px;&quot;&gt;&lt;p style=&quot;margin: 0px 0px 0px 4px; font-size: 16px;&quot;&gt;&lt;br style=&quot;font-size: 16px;&quot;&gt;&lt;/p&gt;" style="verticalAlign=top;align=left;overflow=fill;fontSize=16;fontFamily=Helvetica;html=1;whiteSpace=wrap;strokeColor=#DB918D;fontColor=#FFFFFF;fillColor=none;labelBackgroundColor=none;strokeWidth=3;" parent="qZ8IaFJrwKr3jehd2U7y-1" vertex="1">
          <mxGeometry x="259.0042097543573" y="6.074380165289256" width="115.95407907081224" height="48.595041322314046" as="geometry" />
        </mxCell>
        <mxCell id="kwFyTD9Cq_FAFEDmP9UZ-14" style="edgeStyle=orthogonalEdgeStyle;shape=connector;curved=0;rounded=1;orthogonalLoop=1;jettySize=auto;html=1;labelBackgroundColor=default;strokeColor=#DB918D;strokeWidth=3;align=center;verticalAlign=middle;fontFamily=Helvetica;fontSize=11;fontColor=#FFFFFF;endArrow=none;endFill=0;startSize=10;endSize=9;startArrow=open;startFill=0;" parent="qZ8IaFJrwKr3jehd2U7y-1" source="kwFyTD9Cq_FAFEDmP9UZ-11" target="kwFyTD9Cq_FAFEDmP9UZ-1" edge="1">
          <mxGeometry relative="1" as="geometry">
            <Array as="points">
              <mxPoint x="298" y="171" />
              <mxPoint x="313" y="171" />
            </Array>
          </mxGeometry>
        </mxCell>
        <mxCell id="kwFyTD9Cq_FAFEDmP9UZ-11" value="&lt;p style=&quot;margin: 4px 0px 0px; text-align: center; font-size: 16px;&quot;&gt;&lt;font style=&quot;font-size: 16px;&quot;&gt;&lt;b style=&quot;font-size: 16px;&quot;&gt;&lt;i style=&quot;font-size: 16px;&quot;&gt;RestartOrder&lt;/i&gt;&lt;/b&gt;&lt;/font&gt;&lt;br style=&quot;font-size: 16px;&quot;&gt;&lt;/p&gt;&lt;hr style=&quot;font-size: 16px;&quot;&gt;&lt;p style=&quot;margin: 0px 0px 0px 4px; font-size: 16px;&quot;&gt;&lt;/p&gt;&lt;font style=&quot;font-size: 16px;&quot;&gt;&amp;nbsp;&lt;/font&gt;&lt;font style=&quot;font-size: 14px;&quot;&gt;+ uuid: Option&amp;lt;Uuid&amp;gt;&lt;/font&gt;&lt;p style=&quot;margin: 0px 0px 0px 4px; font-size: 16px;&quot;&gt;&lt;br style=&quot;font-size: 16px;&quot;&gt;&lt;/p&gt;&lt;p style=&quot;margin: 0px 0px 0px 4px; font-size: 16px;&quot;&gt;&lt;br style=&quot;font-size: 16px;&quot;&gt;&lt;/p&gt;" style="verticalAlign=top;align=left;overflow=fill;fontSize=16;fontFamily=Helvetica;html=1;whiteSpace=wrap;labelBackgroundColor=none;fillColor=none;fontColor=#FFFFFF;strokeColor=#DB918D;strokeWidth=3;" parent="qZ8IaFJrwKr3jehd2U7y-1" vertex="1">
          <mxGeometry x="210" y="198.16" width="154.41" height="72.19" as="geometry" />
        </mxCell>
        <mxCell id="kwFyTD9Cq_FAFEDmP9UZ-16" style="edgeStyle=orthogonalEdgeStyle;shape=connector;curved=0;rounded=1;orthogonalLoop=1;jettySize=auto;html=1;labelBackgroundColor=default;strokeColor=#DB918D;strokeWidth=3;align=center;verticalAlign=middle;fontFamily=Helvetica;fontSize=11;fontColor=#FFFFFF;endArrow=none;endFill=0;startSize=10;endSize=9;exitX=0;exitY=0.5;exitDx=0;exitDy=0;entryX=0.75;entryY=1;entryDx=0;entryDy=0;startArrow=open;startFill=0;" parent="qZ8IaFJrwKr3jehd2U7y-1" source="kwFyTD9Cq_FAFEDmP9UZ-13" target="kwFyTD9Cq_FAFEDmP9UZ-1" edge="1">
          <mxGeometry relative="1" as="geometry" />
        </mxCell>
        <mxCell id="kwFyTD9Cq_FAFEDmP9UZ-21" style="edgeStyle=orthogonalEdgeStyle;shape=connector;curved=0;rounded=1;orthogonalLoop=1;jettySize=auto;html=1;labelBackgroundColor=default;strokeColor=#DB918D;strokeWidth=3;align=center;verticalAlign=middle;fontFamily=Helvetica;fontSize=11;fontColor=#FFFFFF;endArrow=none;endFill=0;startSize=10;endSize=9;entryX=0.25;entryY=1;entryDx=0;entryDy=0;startArrow=open;startFill=0;" parent="qZ8IaFJrwKr3jehd2U7y-1" source="kwFyTD9Cq_FAFEDmP9UZ-3" target="kwFyTD9Cq_FAFEDmP9UZ-1" edge="1">
          <mxGeometry relative="1" as="geometry">
            <mxPoint x="255.36996775855914" y="78.96694214876032" as="targetPoint" />
          </mxGeometry>
        </mxCell>
        <mxCell id="kwFyTD9Cq_FAFEDmP9UZ-3" value="&lt;p style=&quot;margin: 4px 0px 0px; text-align: center; font-size: 16px;&quot;&gt;&lt;b style=&quot;font-size: 16px;&quot;&gt;&lt;i style=&quot;font-size: 16px;&quot;&gt;&lt;font style=&quot;font-size: 16px;&quot;&gt;AdditionOrder&lt;/font&gt;&lt;/i&gt;&lt;/b&gt;&lt;/p&gt;&lt;hr style=&quot;font-size: 16px;&quot;&gt;&lt;p style=&quot;margin: 0px 0px 0px 4px; font-size: 14px;&quot;&gt;&lt;font style=&quot;font-size: 14px;&quot;&gt;+ image: String&lt;/font&gt;&lt;/p&gt;&lt;p style=&quot;margin: 0px 0px 0px 4px; font-size: 14px;&quot;&gt;&lt;font style=&quot;font-size: 14px;&quot;&gt;+ network_name: String&lt;/font&gt;&lt;/p&gt;&lt;p style=&quot;margin: 0px 0px 0px 4px; font-size: 14px;&quot;&gt;&lt;/p&gt;&lt;font style=&quot;font-size: 14px;&quot;&gt;&amp;nbsp;+ env_vars: HashMap&amp;lt;String, Value&amp;gt;&lt;/font&gt;&lt;p style=&quot;margin: 0px 0px 0px 4px; font-size: 14px;&quot;&gt;&lt;/p&gt;&lt;font style=&quot;font-size: 14px;&quot;&gt;&amp;nbsp;+ args: Vec&amp;lt;String&amp;gt;&lt;/font&gt;&lt;p style=&quot;margin: 0px 0px 0px 4px; font-size: 16px;&quot;&gt;&lt;br style=&quot;font-size: 16px;&quot;&gt;&lt;/p&gt;" style="verticalAlign=top;align=left;overflow=fill;fontSize=16;fontFamily=Helvetica;html=1;whiteSpace=wrap;labelBackgroundColor=none;fillColor=none;fontColor=#FFFFFF;strokeColor=#DB918D;strokeWidth=3;" parent="qZ8IaFJrwKr3jehd2U7y-1" vertex="1">
          <mxGeometry y="54.67" width="241" height="129.33" as="geometry" />
        </mxCell>
        <mxCell id="kwFyTD9Cq_FAFEDmP9UZ-13" value="&lt;div style=&quot;text-align: center; font-size: 16px;&quot;&gt;&lt;b style=&quot;background-color: initial; border-color: var(--border-color); font-size: 16px;&quot;&gt;&lt;i style=&quot;border-color: var(--border-color); font-size: 16px;&quot;&gt;&lt;br&gt;&lt;/i&gt;&lt;/b&gt;&lt;/div&gt;&lt;div style=&quot;text-align: center; font-size: 16px;&quot;&gt;&lt;b style=&quot;background-color: initial; border-color: var(--border-color); font-size: 16px;&quot;&gt;&lt;i style=&quot;border-color: var(--border-color); font-size: 16px;&quot;&gt;Reconfigure&lt;b style=&quot;background-color: initial; font-size: 16px;&quot;&gt;&lt;i style=&quot;font-size: 16px;&quot;&gt;&lt;font style=&quot;font-size: 16px;&quot;&gt;Order&lt;/font&gt;&lt;/i&gt;&lt;/b&gt;&lt;/i&gt;&lt;/b&gt;&lt;/div&gt;&lt;hr style=&quot;font-size: 16px;&quot;&gt;&lt;p style=&quot;margin: 0px 0px 0px 4px; font-size: 16px;&quot;&gt;&lt;/p&gt;&lt;font style=&quot;font-size: 14px;&quot;&gt;&amp;nbsp;+ uuid: Option&amp;lt;Uuid&amp;gt;,&lt;/font&gt;&lt;p style=&quot;margin: 0px 0px 0px 4px; font-size: 14px;&quot;&gt;&lt;font style=&quot;font-size: 14px;&quot;&gt;+ network_name: String&lt;/font&gt;&lt;/p&gt;&lt;p style=&quot;margin: 0px 0px 0px 4px; font-size: 16px;&quot;&gt;&lt;/p&gt;&lt;font style=&quot;font-size: 16px;&quot;&gt;&amp;nbsp;&lt;br style=&quot;font-size: 16px;&quot;&gt;&lt;/font&gt;" style="verticalAlign=top;align=left;overflow=fill;fontSize=16;fontFamily=Helvetica;html=1;whiteSpace=wrap;labelBackgroundColor=none;fillColor=none;fontColor=#FFFFFF;strokeColor=#DB918D;strokeWidth=3;spacingTop=5;" parent="qZ8IaFJrwKr3jehd2U7y-1" vertex="1">
          <mxGeometry x="407.53" y="42" width="164.31" height="86" as="geometry" />
        </mxCell>
        <mxCell id="kwFyTD9Cq_FAFEDmP9UZ-19" style="edgeStyle=orthogonalEdgeStyle;shape=connector;curved=0;rounded=1;orthogonalLoop=1;jettySize=auto;html=1;exitX=0;exitY=0.5;exitDx=0;exitDy=0;labelBackgroundColor=default;strokeColor=#DB918D;strokeWidth=3;align=center;verticalAlign=middle;fontFamily=Helvetica;fontSize=11;fontColor=#FFFFFF;endArrow=none;endFill=0;startSize=10;endSize=9;startArrow=open;startFill=0;" parent="qZ8IaFJrwKr3jehd2U7y-1" source="kwFyTD9Cq_FAFEDmP9UZ-18" target="kwFyTD9Cq_FAFEDmP9UZ-11" edge="1">
          <mxGeometry relative="1" as="geometry" />
        </mxCell>
        <mxCell id="kwFyTD9Cq_FAFEDmP9UZ-20" style="edgeStyle=orthogonalEdgeStyle;shape=connector;curved=0;rounded=1;orthogonalLoop=1;jettySize=auto;html=1;labelBackgroundColor=default;strokeColor=#DB918D;strokeWidth=3;align=center;verticalAlign=middle;fontFamily=Helvetica;fontSize=11;fontColor=#FFFFFF;endArrow=none;endFill=0;startSize=10;endSize=9;startArrow=open;startFill=0;" parent="qZ8IaFJrwKr3jehd2U7y-1" source="kwFyTD9Cq_FAFEDmP9UZ-18" target="kwFyTD9Cq_FAFEDmP9UZ-13" edge="1">
          <mxGeometry relative="1" as="geometry" />
        </mxCell>
        <mxCell id="kwFyTD9Cq_FAFEDmP9UZ-18" value="&lt;i style=&quot;border-color: var(--border-color); font-size: 16px;&quot;&gt;&amp;lt;&amp;lt;enumeration&amp;gt;&amp;gt;&lt;/i&gt;&lt;br style=&quot;border-color: var(--border-color); font-size: 16px;&quot;&gt;&lt;p style=&quot;margin: 4px 0px 0px; font-size: 16px;&quot;&gt;&lt;font style=&quot;font-size: 16px;&quot;&gt;&lt;b style=&quot;font-size: 16px;&quot;&gt;&lt;i style=&quot;font-size: 16px;&quot;&gt;QueryType&lt;/i&gt;&lt;/b&gt;&lt;/font&gt;&lt;br style=&quot;font-size: 16px;&quot;&gt;&lt;/p&gt;&lt;hr style=&quot;font-size: 16px;&quot;&gt;&lt;p style=&quot;margin: 0px 0px 0px 4px; font-size: 16px;&quot;&gt;&lt;/p&gt;&lt;font style=&quot;font-size: 14px;&quot;&gt;&lt;div style=&quot;text-align: left;&quot;&gt;&lt;span style=&quot;background-color: initial;&quot;&gt;&amp;nbsp;+&amp;nbsp;&lt;/span&gt;&lt;span style=&quot;background-color: initial;&quot;&gt;Http { &lt;span style=&quot;white-space: pre;&quot;&gt;&#x9;&lt;/span&gt;endpoint: PathBuf,&amp;nbsp;&lt;/span&gt;&lt;/div&gt;&lt;div style=&quot;text-align: left;&quot;&gt;&lt;span style=&quot;background-color: initial;&quot;&gt;&lt;span style=&quot;white-space: pre;&quot;&gt;&#x9;&lt;/span&gt;&lt;span style=&quot;white-space: pre;&quot;&gt;&#x9;&lt;/span&gt;port: u16 &lt;span style=&quot;white-space: pre;&quot;&gt;&#x9;&lt;/span&gt;},&lt;/span&gt;&lt;/div&gt;&lt;/font&gt;&lt;p style=&quot;text-align: left; margin: 0px 0px 0px 4px; font-size: 14px;&quot;&gt;&lt;font style=&quot;font-size: 14px;&quot;&gt;...&lt;/font&gt;&lt;/p&gt;" style="verticalAlign=top;align=center;overflow=fill;fontSize=16;fontFamily=Helvetica;html=1;whiteSpace=wrap;labelBackgroundColor=none;fillColor=none;fontColor=#FFFFFF;strokeColor=#DB918D;strokeWidth=3;" parent="qZ8IaFJrwKr3jehd2U7y-1" vertex="1">
          <mxGeometry x="407.53" y="172.51" width="187.47" height="123.49" as="geometry" />
        </mxCell>
        <mxCell id="kwFyTD9Cq_FAFEDmP9UZ-23" style="edgeStyle=orthogonalEdgeStyle;shape=connector;curved=0;rounded=1;orthogonalLoop=1;jettySize=auto;html=1;labelBackgroundColor=default;strokeColor=#DB918D;strokeWidth=3;align=center;verticalAlign=middle;fontFamily=Helvetica;fontSize=11;fontColor=#FFFFFF;endArrow=none;endFill=0;startSize=10;endSize=9;startArrow=open;startFill=0;" parent="qZ8IaFJrwKr3jehd2U7y-1" source="kwFyTD9Cq_FAFEDmP9UZ-22" target="kwFyTD9Cq_FAFEDmP9UZ-13" edge="1">
          <mxGeometry relative="1" as="geometry" />
        </mxCell>
        <mxCell id="kwFyTD9Cq_FAFEDmP9UZ-22" value="&lt;i style=&quot;border-color: var(--border-color); font-size: 16px;&quot;&gt;&amp;lt;&amp;lt;enumeration&amp;gt;&amp;gt;&lt;/i&gt;&lt;br style=&quot;border-color: var(--border-color); font-size: 16px;&quot;&gt;&lt;p style=&quot;margin: 4px 0px 0px; font-size: 16px;&quot;&gt;&lt;font style=&quot;font-size: 16px;&quot;&gt;&lt;b style=&quot;font-size: 16px;&quot;&gt;&lt;i style=&quot;font-size: 16px;&quot;&gt;ReconfigureType&lt;/i&gt;&lt;/b&gt;&lt;/font&gt;&lt;br style=&quot;font-size: 16px;&quot;&gt;&lt;/p&gt;&lt;hr style=&quot;font-size: 16px;&quot;&gt;&lt;p style=&quot;margin: 0px 0px 0px 4px; font-size: 16px;&quot;&gt;&lt;/p&gt;&lt;span style=&quot;background-color: initial; font-size: 14px;&quot;&gt;&lt;div style=&quot;text-align: left;&quot;&gt;&lt;span style=&quot;font-size: 16px; background-color: initial;&quot;&gt;&amp;nbsp;&lt;/span&gt;&lt;font style=&quot;font-size: 14px;&quot;&gt;&lt;span style=&quot;background-color: initial;&quot;&gt;+&amp;nbsp;&lt;/span&gt;Http { &lt;span style=&quot;white-space: pre;&quot;&gt;&#x9;&lt;/span&gt;endpoint: PathBuf,&amp;nbsp;&lt;/font&gt;&lt;/div&gt;&lt;div style=&quot;text-align: left;&quot;&gt;&lt;font style=&quot;font-size: 14px;&quot;&gt;&lt;span style=&quot;white-space: pre;&quot;&gt;&#x9;&lt;/span&gt;&lt;span style=&quot;white-space: pre;&quot;&gt;&#x9;&lt;/span&gt;port: u16,&amp;nbsp;&lt;/font&gt;&lt;/div&gt;&lt;div style=&quot;text-align: left;&quot;&gt;&lt;span style=&quot;background-color: initial;&quot;&gt;&lt;font style=&quot;font-size: 14px;&quot;&gt;&lt;span style=&quot;white-space: pre;&quot;&gt;&#x9;&lt;/span&gt;&lt;span style=&quot;white-space: pre;&quot;&gt;&#x9;&lt;/span&gt;method: Method,&lt;/font&gt;&lt;/span&gt;&lt;/div&gt;&lt;div style=&quot;text-align: left;&quot;&gt;&lt;font style=&quot;font-size: 14px;&quot;&gt;&lt;span style=&quot;background-color: initial;&quot;&gt;&amp;nbsp; &amp;nbsp; &amp;nbsp; &amp;nbsp; &lt;span style=&quot;white-space: pre;&quot;&gt;&#x9;&lt;/span&gt;payload: Value&amp;nbsp; &amp;nbsp;&lt;/span&gt;&lt;span style=&quot;background-color: initial;&quot;&gt;&amp;nbsp;&lt;/span&gt;&lt;span style=&quot;background-color: initial;&quot;&gt;},&lt;/span&gt;&lt;/font&gt;&lt;/div&gt;&lt;/span&gt;&lt;p style=&quot;text-align: left; margin: 0px 0px 0px 4px; font-size: 14px;&quot;&gt;&lt;font style=&quot;font-size: 14px;&quot;&gt;...&lt;/font&gt;&lt;/p&gt;" style="verticalAlign=top;align=center;overflow=fill;fontSize=16;fontFamily=Helvetica;html=1;whiteSpace=wrap;labelBackgroundColor=none;fillColor=none;fontColor=#FFFFFF;strokeColor=#DB918D;strokeWidth=3;" parent="qZ8IaFJrwKr3jehd2U7y-1" vertex="1">
          <mxGeometry x="608.21" y="1" width="207.79" height="157" as="geometry" />
        </mxCell>
      </root>
    </mxGraphModel>
  </diagram>
</mxfile>
